# xmcd
#
# Track frame offsets: 
#        150
#        17123
#        26942
#        37360
#        47423
#        64905
#        79837
#        94052
#        108497
#        120239
#        135325
#        143528
#        159206
#
# Disc length: 2184 seconds
#
# Revision: 0
# Processed by: cddbd v1.5.2PL0 Copyright (c) Steve Scherf et al.
# Submitted via: ExactAudioCopy v1.3
#
DISCID=a408860d
DTITLE=Doghouse Sam and His Magnatones - Buddha Blue
DYEAR=2012
DGENRE=Blues, Western Swing
TTITLE0=Ain't Got Time
TTITLE1=Love To Spend
TTITLE2=Why
TTITLE3=Let's Get It On
TTITLE4=Hurt
TTITLE5=It Ain't Easy
TTITLE6=Roll Up My Sleeves
TTITLE7=Crossroads
TTITLE8=One Less Thing
TTITLE9=Nobody Knows
TTITLE10=Lots To Do And Little Time
TTITLE11=Back In The Ring
TTITLE12=Buttoned Up
EXTD=
EXTT0=
EXTT1=
EXTT2=
EXTT3=
EXTT4=
EXTT5=
EXTT6=
EXTT7=
EXTT8=
EXTT9=
EXTT10=
EXTT11=
EXTT12=
PLAYORDER=
